<svg xmlns="http://www.w3.org/2000/svg" viewBox="0 0 1400 788" role="img" aria-labelledby="title">
  <title>Muted orbital telemetry background</title>
  <defs>
    <radialGradient id="glow" cx=".7" cy=".28" r=".6">
      <stop offset="0" stop-color="#284252"/>
      <stop offset=".55" stop-color="#111c27"/>
      <stop offset="1" stop-color="#071019"/>
    </radialGradient>
  </defs>
  <rect width="1400" height="788" fill="url(#glow)"/>
  <g fill="none" stroke="#6f8fa3" opacity=".2">
    <ellipse cx="840" cy="382" rx="420" ry="146" transform="rotate(-14 840 382)"/>
    <ellipse cx="840" cy="382" rx="514" ry="190" transform="rotate(-14 840 382)"/>
    <ellipse cx="840" cy="382" rx="606" ry="226" transform="rotate(-14 840 382)"/>
  </g>
  <g fill="#dce8ed" opacity=".5">
    <circle cx="382" cy="182" r="2"/>
    <circle cx="512" cy="116" r="1.5"/>
    <circle cx="732" cy="204" r="2"/>
    <circle cx="1058" cy="148" r="2"/>
    <circle cx="1124" cy="398" r="1.8"/>
    <circle cx="980" cy="608" r="1.6"/>
    <circle cx="688" cy="574" r="2"/>
  </g>
  <g stroke-linecap="round" fill="none">
    <path d="M222 520C386 424 502 472 650 382s270-110 470-38" stroke="#86a8b6" stroke-width="3" opacity=".26"/>
    <path d="M250 574C440 490 562 522 738 430s316-130 494-80" stroke="#a88f63" stroke-width="3" opacity=".18"/>
  </g>
  <path d="M812 338l58 24-50 38-58-24z" fill="#dce8ed" opacity=".42"/>
  <path d="M788 374l108-2" stroke="#dce8ed" stroke-width="5" opacity=".34"/>
</svg>
