<svg xmlns="http://www.w3.org/2000/svg" viewBox="0 0 900 520" role="img" aria-labelledby="title">
  <title>Decentralized telemetry architecture illustration</title>
  <defs>
    <linearGradient id="panel" x1="0" x2="1" y1="0" y2="1">
      <stop offset="0" stop-color="#172531"/>
      <stop offset="1" stop-color="#0b141d"/>
    </linearGradient>
    <filter id="soft" x="-20%" y="-20%" width="140%" height="140%">
      <feGaussianBlur stdDeviation="5"/>
    </filter>
  </defs>
  <rect width="900" height="520" fill="#08111a"/>
  <g opacity=".34" stroke="#2b4558" stroke-width="1">
    <path d="M50 80h800M50 160h800M50 240h800M50 320h800M50 400h800"/>
    <path d="M120 40v440M240 40v440M360 40v440M480 40v440M600 40v440M720 40v440"/>
  </g>
  <g fill="none" stroke-linecap="round">
    <path d="M176 122C290 92 322 210 438 214" stroke="#79a9b8" stroke-width="3"/>
    <path d="M176 258C296 258 330 244 438 240" stroke="#87a77d" stroke-width="3"/>
    <path d="M176 392C292 354 326 280 438 262" stroke="#b69863" stroke-width="3"/>
    <path d="M438 214C548 214 616 164 720 154" stroke="#79a9b8" stroke-width="3"/>
    <path d="M438 240C566 244 614 258 720 264" stroke="#87a77d" stroke-width="3"/>
    <path d="M438 262C560 318 612 378 720 374" stroke="#b69863" stroke-width="3"/>
  </g>
  <g fill="url(#panel)" stroke="#4b6c7f" stroke-width="2">
    <rect x="78" y="82" width="156" height="82" rx="10"/>
    <rect x="78" y="218" width="156" height="82" rx="10"/>
    <rect x="78" y="354" width="156" height="82" rx="10"/>
    <rect x="392" y="172" width="116" height="112" rx="18"/>
    <rect x="664" y="102" width="156" height="82" rx="10"/>
    <rect x="664" y="222" width="156" height="82" rx="10"/>
    <rect x="664" y="342" width="156" height="82" rx="10"/>
  </g>
  <g opacity=".75">
    <circle cx="156" cy="123" r="20" fill="#79a9b8"/>
    <circle cx="156" cy="259" r="20" fill="#87a77d"/>
    <circle cx="156" cy="395" r="20" fill="#b69863"/>
    <circle cx="450" cy="228" r="39" fill="#d6e3e7" opacity=".12"/>
    <circle cx="450" cy="228" r="21" fill="#d6e3e7" opacity=".32"/>
  </g>
  <g fill="#d6e3e7" opacity=".72">
    <circle cx="704" cy="143" r="6"/>
    <circle cx="734" cy="143" r="6"/>
    <circle cx="764" cy="143" r="6"/>
    <rect x="692" y="252" width="96" height="10" rx="5"/>
    <rect x="692" y="274" width="70" height="10" rx="5"/>
    <path d="M710 388h76v10h-76zM720 368h56v10h-56zM732 348h32v10h-32z"/>
  </g>
  <ellipse cx="450" cy="228" rx="178" ry="52" fill="#8fb3c2" opacity=".06" filter="url(#soft)"/>
</svg>
