<svg xmlns="http://www.w3.org/2000/svg" viewBox="0 0 900 520" role="img" aria-labelledby="title">
  <title>Thermal vacuum setup illustration</title>
  <rect width="900" height="520" fill="#070f17"/>
  <ellipse cx="450" cy="260" rx="330" ry="170" fill="#101b25" stroke="#566d80" stroke-width="3"/>
  <ellipse cx="450" cy="260" rx="272" ry="126" fill="#0b141d" stroke="#41596b" stroke-width="2"/>
  <path d="M182 260h536" stroke="#627c8d" stroke-width="5" opacity=".45"/>
  <path d="M226 192c84 42 153 42 238 0s145-42 210 0" fill="none" stroke="#8eaebb" stroke-width="4" opacity=".4"/>
  <path d="M226 330c84-42 153-42 238 0s145 42 210 0" fill="none" stroke="#b49663" stroke-width="4" opacity=".36"/>
  <rect x="330" y="302" width="240" height="34" rx="8" fill="#273845" stroke="#83a4b2" stroke-width="2"/>
  <rect x="380" y="230" width="140" height="76" rx="12" fill="#2b343b" stroke="#b5c8d0" stroke-width="2"/>
  <g fill="none" stroke-linecap="round">
    <path d="M450 230v-96" stroke="#b6a66d" stroke-width="4"/>
    <path d="M394 240l-84-68M506 240l84-68" stroke="#9dafba" stroke-width="3"/>
    <path d="M570 319h128c40 0 58 32 86 54" stroke="#829eac" stroke-width="4"/>
    <path d="M330 319H202c-40 0-58 32-86 54" stroke="#829eac" stroke-width="4"/>
  </g>
  <g fill="#d6e3e7" opacity=".72">
    <circle cx="450" cy="134" r="8"/>
    <circle cx="310" cy="172" r="7"/>
    <circle cx="590" cy="172" r="7"/>
    <circle cx="698" cy="319" r="7"/>
    <circle cx="202" cy="319" r="7"/>
  </g>
  <g opacity=".32" fill="none" stroke="#7890a4">
    <circle cx="450" cy="260" r="198"/>
    <circle cx="450" cy="260" r="236"/>
  </g>
</svg>
